{"title":"Trance Beast 26","uid":5552463,"size":106725776,"categoryP":"audio","categoryS":"music","magnet":"?xt=urn:btih:0d05864b2f4a0862d85f63e5f7e04f88c75511cb&amp;dn=Trance+Beast+26&amp;tr=udp%3A%2F%2Ftracker.openbittorrent.com%3A80&amp;tr=udp%3A%2F%2Fopen.demonii.com%3A1337&amp;tr=udp%3A%2F%2Ftracker.coppersurfer.tk%3A6969&amp;tr=udp%3A%2F%2Fexodus.desync.com%3A6969","seeders":0,"leechers":0,"uploader":"FelRaz","files":4,"time":1273538575,"description":"Trance Beast 26\n.cue included!\n\n\nSize: 106723916 bytes\nLength: 4446 seconds\nMPEG 1.0 layer 3\n192kbit, 170485 frames\n44100Hz Joint Stereo\nCRCs: Yes\n\nHey people here I present you this great disc...\nIf anyone has more Trance Beasts please post here!\n\nPERFORMER &quot;VA&quot;\nTITLE &quot;Trance Beast 26&quot;\nFILE &quot;01_va_-_trance_beast_26.mp3&quot; MP3\n  TRACK 01 AUDIO\n    TITLE &quot;Intro&quot;\n    PERFORMER &quot;&quot;\n    INDEX 01 00:00:00\n  TRACK 02 AUDIO\n    TITLE &quot;Love Changes (Da ph1ls Club Mix)&quot;\n    PERFORMER &quot;Dj Deect&quot;\n    INDEX 01 01:31:00\n  TRACK 03 AUDIO\n    TITLE &quot;Tricky Disco (Club Mix)&quot;\n    PERFORMER &quot;Discotronic&quot;\n    INDEX 01 07:16:00\n  TRACK 04 AUDIO\n    TITLE &quot;I like to move it (Spaceworld Remix)&quot;\n    PERFORMER &quot;Madagascar 5 feat. kk Project&quot;\n    INDEX 01 12:02:00\n  TRACK 05 AUDIO\n    TITLE &quot;Right here waiting (club mix)&quot;\n    PERFORMER &quot;Full gainer feat. Scotty&quot;\n    INDEX 01 17:22:00\n  TRACK 06 AUDIO\n    TITLE &quot;China in your hand (Kosmonova Remix)&quot;\n    PERFORMER &quot;T Pau&quot;\n    INDEX 01 22:50:00\n  TRACK 07 AUDIO\n    TITLE &quot;Speedlimit (Original Mix)&quot;\n    PERFORMER &quot;Ampire&quot;\n    INDEX 01 27:20:00\n  TRACK 08 AUDIO\n    TITLE &quot;If I Could Be You (DJ Dean Club Mix)&quot;\n    PERFORMER &quot;DJ Dean&quot;\n    INDEX 01 32:21:00\n  TRACK 09 AUDIO\n    TITLE &quot;Tears in my Eyes (X Extended)&quot;\n    PERFORMER &quot;DJ Ramon Zerano And Marc Korn&quot;\n    INDEX 01 38:43:00\n  TRACK 10 AUDIO\n    TITLE &quot;Piece of My Heart (Basslover united Remix)&quot;\n    PERFORMER &quot;Jan Wayne&quot;\n    INDEX 01 44:18:00\n  TRACK 11 AUDIO\n    TITLE &quot;From Poland to Brasil (Extended Mix)&quot;\n    PERFORMER &quot;Kalwi &amp; Remi&quot;\n    INDEX 01 48:52:00\n  TRACK 12 AUDIO\n    TITLE &quot;Nie Bada Julia (Flashrider Mix)&quot;\n    PERFORMER &quot;Wanda Banda&quot;\n    INDEX 01 54:51:00\n  TRACK 13 AUDIO\n    TITLE &quot;Seconds (Original Mix)&quot;\n    PERFORMER &quot;Deniz Kasum&quot;\n    INDEX 01 59:31:00\n  TRACK 14 AUDIO\n    TITLE &quot;Infinity (Dj mns vs. E-Maxx Remix)&quot;\n    PERFORMER &quot;Datura&quot;\n    INDEX 01 64:43:00\n  TRACK 15 AUDIO\n    TITLE &quot;Be denied (Club Mix)&quot;\n    PERFORMER &quot;Hands Up Squad&quot;\n    INDEX 01 69:30:00\n\n\n//my second release! I'm real happy!!","torrent":{"xt":"urn:btih:0d05864b2f4a0862d85f63e5f7e04f88c75511cb","amp;dn":"Trance+Beast+26","amp;tr":["udp%3A%2F%2Ftracker.openbittorrent.com%3A80","udp%3A%2F%2Fopen.demonii.com%3A1337","udp%3A%2F%2Ftracker.coppersurfer.tk%3A6969","udp%3A%2F%2Fexodus.desync.com%3A6969"],"infoHash":"0d05864b2f4a0862d85f63e5f7e04f88c75511cb","infoHashBuffer":{"type":"Buffer","data":[13,5,134,75,47,74,8,98,216,95,99,229,247,224,79,136,199,85,17,203]},"announce":[],"urlList":[]}}